<svg width="22" height="22" viewBox="0 0 22 22" fill="none" xmlns="http://www.w3.org/2000/svg">
<path d="M10.9121 5.60938C13.8652 5.60938 16.3027 8.04688 16.3027 11C16.3027 14 13.8652 16.3906 10.9121 16.3906C7.91211 16.3906 5.52148 14 5.52148 11C5.52148 8.04688 7.91211 5.60938 10.9121 5.60938ZM10.9121 14.5156C12.834 14.5156 14.3809 12.9688 14.3809 11C14.3809 9.07812 12.834 7.53125 10.9121 7.53125C8.94336 7.53125 7.39648 9.07812 7.39648 11C7.39648 12.9688 8.99023 14.5156 10.9121 14.5156ZM17.7559 5.42188C17.7559 6.125 17.1934 6.6875 16.4902 6.6875C15.7871 6.6875 15.2246 6.125 15.2246 5.42188C15.2246 4.71875 15.7871 4.15625 16.4902 4.15625C17.1934 4.15625 17.7559 4.71875 17.7559 5.42188ZM21.3184 6.6875C21.4121 8.42188 21.4121 13.625 21.3184 15.3594C21.2246 17.0469 20.8496 18.5 19.6309 19.7656C18.4121 20.9844 16.9121 21.3594 15.2246 21.4531C13.4902 21.5469 8.28711 21.5469 6.55273 21.4531C4.86523 21.3594 3.41211 20.9844 2.14648 19.7656C0.927734 18.5 0.552734 17.0469 0.458984 15.3594C0.365234 13.625 0.365234 8.42188 0.458984 6.6875C0.552734 5 0.927734 3.5 2.14648 2.28125C3.41211 1.0625 4.86523 0.6875 6.55273 0.59375C8.28711 0.5 13.4902 0.5 15.2246 0.59375C16.9121 0.6875 18.4121 1.0625 19.6309 2.28125C20.8496 3.5 21.2246 5 21.3184 6.6875ZM19.0684 17.1875C19.6309 15.8281 19.4902 12.5469 19.4902 11C19.4902 9.5 19.6309 6.21875 19.0684 4.8125C18.6934 3.92188 17.9902 3.17188 17.0996 2.84375C15.6934 2.28125 12.4121 2.42188 10.9121 2.42188C9.36523 2.42188 6.08398 2.28125 4.72461 2.84375C3.78711 3.21875 3.08398 3.92188 2.70898 4.8125C2.14648 6.21875 2.28711 9.5 2.28711 11C2.28711 12.5469 2.14648 15.8281 2.70898 17.1875C3.08398 18.125 3.78711 18.8281 4.72461 19.2031C6.08398 19.7656 9.36523 19.625 10.9121 19.625C12.4121 19.625 15.6934 19.7656 17.0996 19.2031C17.9902 18.8281 18.7402 18.125 19.0684 17.1875Z" fill="white"/>
</svg>
