<svg width="25" height="20" viewBox="0 0 25 20" fill="none" xmlns="http://www.w3.org/2000/svg">
<path d="M21.8357 5.125C21.8357 5.35938 21.8357 5.54688 21.8357 5.78125C21.8357 12.2969 16.9138 19.75 7.86694 19.75C5.05444 19.75 2.47632 18.9531 0.320068 17.5469C0.695068 17.5938 1.07007 17.6406 1.49194 17.6406C3.78882 17.6406 5.89819 16.8438 7.58569 15.5312C5.42944 15.4844 3.60132 14.0781 2.99194 12.1094C3.32007 12.1562 3.60132 12.2031 3.92944 12.2031C4.35132 12.2031 4.82007 12.1094 5.19507 12.0156C2.94507 11.5469 1.25757 9.57812 1.25757 7.1875V7.14062C1.91382 7.51562 2.71069 7.70312 3.50757 7.75C2.14819 6.85938 1.30444 5.35938 1.30444 3.67188C1.30444 2.73438 1.53882 1.89062 1.96069 1.1875C4.39819 4.14062 8.05444 6.10938 12.1326 6.34375C12.0388 5.96875 11.9919 5.59375 11.9919 5.21875C11.9919 2.5 14.1951 0.296875 16.9138 0.296875C18.3201 0.296875 19.5857 0.859375 20.5232 1.84375C21.6013 1.60938 22.6794 1.1875 23.6169 0.625C23.2419 1.79688 22.4919 2.73438 21.4607 3.34375C22.4451 3.25 23.4294 2.96875 24.2732 2.59375C23.6169 3.57812 22.7732 4.42188 21.8357 5.125Z" fill="white"/>
</svg>
